# xmcd
#
# Track frame offsets:
#       150
#       17550
#       36610
#       57297
#       68855
#       86542
#       99765
#       118120
#       132440
#       152515
#       166680
#       187605
#       202567
#
# Disc length: 3092 seconds
#
# Revision: 2
# Processed by: cddbd v1.5.1PL2 Copyright (c) Steve Scherf et al.
# Submitted via: WaveLab 4.01
#
DISCID=970c120d
DTITLE=Michael Bublé - Michael Bublé
DYEAR=2003
DGENRE=
TTITLE0=Michael Bublé - Fever
TTITLE1=Michael Bublé - Moondance
TTITLE2=Michael Bublé - Kissing a Fool
TTITLE3=Michael Bublé - For Once In My Life
TTITLE4=Michael Bublé - How Can you Mend a Broken Heart
TTITLE5=Michael Bublé - Summer Wind
TTITLE6=Michael Bublé - You'll Never Find another Love Like Mine
TTITLE7=Michael Bublé - Crazy Little Thing Called Love
TTITLE8=Michael Bublé - Put Your Head On My Shoulder
TTITLE9=Michael Bublé - Sway
TTITLE10=Michael Bublé - The Way You Look Tonight
TTITLE11=Michael Bublé - Come Fly With Me
TTITLE12=Michael Bublé - That's All
EXTD=
EXTT0=
EXTT1=
EXTT2=
EXTT3=
EXTT4=
EXTT5=
EXTT6=
EXTT7=
EXTT8=
EXTT9=
EXTT10=
EXTT11=
EXTT12=
PLAYORDER=
